# xmcd
#
# Track frame offsets: 
#        150
#        36225
#        72688
#        103374
#        129017
#        151248
#
# Disc length: 2602 seconds
#
# Revision: 1
# Processed by: cddbd v1.5.2PL0 Copyright (c) Steve Scherf et al.
# Submitted via: ExactAudioCopy v0.99pb4
#
DISCID=4f0a2806
DTITLE=Steve Kuhn Trio - Quiereme Mucho
DYEAR=2000
DGENRE=Jazz
TTITLE0=Andalucia (The Breeze And I)
TTITLE1=Besame Mucho (Kiss Me Mucho)
TTITLE2=Siempre En Mi Corazon (Always In My Heart)
TTITLE3=Duerme (Time Was)
TTITLE4=Quierme Mucho (Yours)
TTITLE5=Tres Palabras (Without You)
EXTD=YEAR: 2000
EXTT0=
EXTT1=
EXTT2=
EXTT3=
EXTT4=
EXTT5=
PLAYORDER=
